<?xml version="1.0" encoding="iso-8859-1"?>
<!-- Generator: Adobe Illustrator 19.0.0, SVG Export Plug-In . SVG Version: 6.00 Build 0)  -->
<svg version="1.1" id="Layer_1" xmlns="http://www.w3.org/2000/svg" xmlns:xlink="http://www.w3.org/1999/xlink" x="0px" y="0px"
	 viewBox="0 0 500.152 500.152" style="enable-background:new 0 0 500.152 500.152;" xml:space="preserve">
<g>
	<g>
		<path d="M463.776,116.236c-9.688-30.68-32.52-54.76-62.656-66.056l-79.048-29.648V2.076h-144v18.456l-79.048,29.64
			c-30.136,11.304-52.968,35.376-62.656,66.056L0,231.412l95.44,28.632l18.632-62.128v300.16h272v-300.16l18.64,62.12l95.44-28.632
			L463.776,116.236z M306.072,18.076v6.112L292.4,51.532l-23.752,7.92l25.856-41.376H306.072z M275.632,18.076l-25.56,40.904
			l-25.568-40.904H275.632z M194.072,18.076h11.568l25.856,41.376l-23.752-7.92l-13.672-27.344V18.076z M130.072,482.076v-185.56
			c12.52,9.52,21.88,22.864,26.336,38.144l43,147.416H130.072z M171.768,330.188c-6.504-22.32-21.616-41.232-41.696-52.76v-73.96
			l6.928,5.936c21.68,18.584,36.056,44.36,40.464,72.584l22.792,145.864L171.768,330.188z M370.072,482.076h-69.336l43-147.416
			c4.456-15.28,13.816-28.624,26.336-38.144V482.076z M370.072,277.428c-20.08,11.52-35.184,30.432-41.696,52.76l-28.488,97.664
			l22.792-145.864c4.408-28.216,18.784-54,40.464-72.584l6.928-5.936V277.428z M392.024,162.076h-21.952v20.32l-17.336,14.864
			c-24.576,21.064-40.856,50.28-45.856,82.264l-31.656,202.552h-50.312l-31.648-202.56c-5-31.984-21.28-61.192-45.856-82.264
			l-17.336-14.856v-20.32H108.12l-23.408,78.04l-64.56-19.368l5.808-18.384l53.92,15.408l4.4-15.384L30.776,187.1l20.856-66.048
			c8.192-25.96,27.52-46.336,53.016-55.896l77.496-29.064l14.264,28.52l53.664,17.896l53.672-17.888l14.264-28.52l77.496,29.064
			C421,74.724,440.328,95.1,448.52,121.06l20.856,66.048l-53.504,15.288l4.4,15.384l53.92-15.408L480,220.756l-64.56,19.368
			L392.024,162.076z"/>
	</g>
</g>
<g>
</g>
<g>
</g>
<g>
</g>
<g>
</g>
<g>
</g>
<g>
</g>
<g>
</g>
<g>
</g>
<g>
</g>
<g>
</g>
<g>
</g>
<g>
</g>
<g>
</g>
<g>
</g>
<g>
</g>
</svg>
